# xmcd
#
# Track frame offsets: 
#        150
#        17447
#        31498
#        47527
#        65718
#        83347
#        101921
#        117509
#        133214
#        146668
#        161196
#        181518
#        197055
#        217141
#
# Disc length: 3119 seconds
#
# Revision: 2
# Processed by: cddbd v1.5.2PL0 Copyright (c) Steve Scherf et al.
# Submitted via: ExactAudioCopyFreeDBPlugin 1.0
#
DISCID=c90c2d0e
DTITLE=Meiko Kaj - Onna Wo Yametai Soshite
DYEAR=2010
DGENRE=JPop
TTITLE0=Shura No Hana
TTITLE1=Ho Yareho...
TTITLE2=Jeans Blues
TTITLE3=Ingabana
TTITLE4=Meiko No Yume Wa Yoru Hiraku
TTITLE5=huki No Uta
TTITLE6=ZigZag Moyou
TTITLE7=Lady Blue
TTITLE8=Motomachi Chanson
TTITLE9=Tabidachi
TTITLE10=Kawaita Hana
TTITLE11=Kirisame Hotel
TTITLE12=Onna Wo Yametai
TTITLE13=Omoide-Biyori
EXTD=
EXTT0=
EXTT1=
EXTT2=
EXTT3=
EXTT4=
EXTT5=
EXTT6=
EXTT7=
EXTT8=
EXTT9=
EXTT10=
EXTT11=
EXTT12=
EXTT13=
PLAYORDER=
